<svg xmlns="http://www.w3.org/2000/svg" viewBox="0 0 32 32"><g color="#cc2c2c" font-weight="400" font-family="sans-serif" fill="#cc2c2c"><path style="line-height:normal;text-indent:0;text-align:start;text-decoration-line:none;text-decoration-style:solid;text-decoration-color:#cc2c2c;text-transform:none;white-space:normal;isolation:auto;mix-blend-mode:normal;solid-color:#cc2c2c;solid-opacity:1" d="M13.575 13.567a18.3 18.3 0 018.018 1.922 9.284 9.284 0 00-1.807 1.848c-1.55.125-3.076.443-4.55.924a.5.5 0 00-.196-.19c-1.977-1.094-4.14-1.54-6.262-1.357-1.925.165-3.815.853-5.502 2.037a13.037 13.037 0 01-.255-1.922 18.306 18.306 0 0110.554-3.262zM26.433 14.745a7.152 7.152 0 012.298.324.486.514 29.346 00.204.021c.02.302.045.603.045.91 0 .915-.096 1.806-.276 2.666a19.721 19.721 0 00-4.744-1.238 19.933 19.933 0 00-2.86-.14c1.44-1.592 3.344-2.496 5.333-2.543z" overflow="visible"/><path style="line-height:normal;text-indent:0;text-align:start;text-decoration-line:none;text-decoration-style:solid;text-decoration-color:#cc2c2c;text-transform:none;white-space:normal;isolation:auto;mix-blend-mode:normal;solid-color:#cc2c2c;solid-opacity:1" d="M9.583 17.665a9.936 9.936 0 014.455 1.02 18.92 18.92 0 00-4.816 2.789c-1.362.278-2.705.7-4.004 1.28a.5.5 0 00-.225.178 12.909 12.909 0 01-1.45-3.14c1.835-1.385 3.929-2.104 6.04-2.127zM21.345 18.265a18.73 18.73 0 017.11 1.376 12.97 12.97 0 01-3.378 5.641 19.162 19.162 0 00-13.683-4.125c2.962-1.89 6.436-2.882 9.95-2.892z" overflow="visible"/><path style="line-height:normal;text-indent:0;text-align:start;text-decoration-line:none;text-decoration-style:solid;text-decoration-color:#cc2c2c;text-transform:none;white-space:normal;isolation:auto;mix-blend-mode:normal;solid-color:#cc2c2c;solid-opacity:1" d="M12.925 22.077a18.2 18.2 0 0111.4 3.89 12.946 12.946 0 01-8.346 3.034c-4.296 0-8.09-2.09-10.457-5.297a.5.5 0 00.104-.037 18.228 18.228 0 017.299-1.59z" overflow="visible"/><path style="line-height:normal;text-indent:0;text-align:start;text-decoration-line:none;text-decoration-style:solid;text-decoration-color:#cc2c2c;text-transform:none;white-space:normal;isolation:auto;mix-blend-mode:normal;solid-color:#cc2c2c;solid-opacity:1" d="M13.037 7.871a.5.5 0 00-.492.508v3.871a.5.5 0 101 0V8.379a.5.5 0 00-.508-.508z" overflow="visible" fill-rule="evenodd"/><path style="line-height:normal;text-indent:0;text-align:start;text-decoration-line:none;text-decoration-style:solid;text-decoration-color:#cc2c2c;text-transform:none;white-space:normal;isolation:auto;mix-blend-mode:normal;solid-color:#cc2c2c;solid-opacity:1" d="M14.799 7.285a.5.5 0 00-.492.506V9.25h-1.254a.5.5 0 100 1h1.754a.5.5 0 00.5-.5V7.791a.5.5 0 00-.508-.506z" overflow="visible" fill-rule="evenodd"/><path style="line-height:normal;text-indent:0;text-align:start;text-decoration-line:none;text-decoration-style:solid;text-decoration-color:#cc2c2c;text-transform:none;white-space:normal;isolation:auto;mix-blend-mode:normal;solid-color:#cc2c2c;solid-opacity:1" d="M11.277 9.045a.5.5 0 00-.492.508V11a.5.5 0 00.5.5h1.752a.5.5 0 100-1h-1.252v-.947a.5.5 0 00-.508-.508z" overflow="visible" fill-rule="evenodd"/><path style="line-height:normal;text-indent:0;text-align:start;text-decoration-line:none;text-decoration-style:solid;text-decoration-color:#cc2c2c;text-transform:none;white-space:normal;isolation:auto;mix-blend-mode:normal;solid-color:#cc2c2c;solid-opacity:1" d="M16 1C7.722 1 1 7.722 1 16c0 8.278 6.722 15 15 15 8.278 0 15-6.722 15-15 0-8.278-6.722-15-15-15zm0 1c7.738 0 14 6.262 14 14s-6.262 14-14 14S2 23.738 2 16 8.262 2 16 2z" overflow="visible"/></g></svg>