<svg xmlns:dc="http://purl.org/dc/elements/1.1/" xmlns:cc="http://creativecommons.org/ns#" xmlns:rdf="http://www.w3.org/1999/02/22-rdf-syntax-ns#" xmlns:svg="http://www.w3.org/2000/svg" xmlns="http://www.w3.org/2000/svg" xmlns:sodipodi="http://sodipodi.sourceforge.net/DTD/sodipodi-0.dtd" xmlns:inkscape="http://www.inkscape.org/namespaces/inkscape" viewBox="0 0 32 32.000001" version="1.1" x="0px" y="0px"><g transform="translate(0,-1020.3622)"><path style="color:#cc2c2c;font-style:normal;font-variant:normal;font-weight:normal;font-stretch:normal;font-size:medium;line-height:normal;font-family:sans-serif;text-indent:0;text-align:start;text-decoration:none;text-decoration-line:none;text-decoration-style:solid;text-decoration-color:#cc2c2c;letter-spacing:normal;word-spacing:normal;text-transform:none;direction:ltr;writing-mode:lr-tb;baseline-shift:baseline;text-anchor:start;white-space:normal;clip-rule:nonzero;display:inline;overflow:visible;visibility:visible;opacity:1;isolation:auto;mix-blend-mode:normal;color-interpolation:sRGB;color-interpolation-filters:linearRGB;solid-color:#cc2c2c;solid-opacity:1;fill:#cc2c2c;fill-opacity:1;fill-rule:nonzero;stroke:none;stroke-width:0.99999994;stroke-linecap:round;stroke-linejoin:round;stroke-miterlimit:4;stroke-dasharray:none;stroke-dashoffset:0;stroke-opacity:1;color-rendering:auto;image-rendering:auto;shape-rendering:auto;text-rendering:auto;enable-background:accumulate" d="m 13.5752,1033.9295 c 2.7399,0.019 5.4821,0.6622 8.0176,1.9219 -0.6684,0.5119 -1.2766,1.1326 -1.8067,1.8476 -1.5501,0.125 -3.076,0.4428 -4.5508,0.9239 a 0.50004997,0.50004997 0 0 0 -0.1953,-0.1895 c -1.9769,-1.0939 -4.1395,-1.54 -6.2617,-1.3574 -1.9258,0.1657 -3.8157,0.8532 -5.5019,2.0371 -0.1344,-0.6246 -0.2146,-1.2673 -0.2559,-1.9219 3.1564,-2.1854 6.849,-3.2878 10.5547,-3.2617 z"></path><path style="color:#cc2c2c;font-style:normal;font-variant:normal;font-weight:normal;font-stretch:normal;font-size:medium;line-height:normal;font-family:sans-serif;text-indent:0;text-align:start;text-decoration:none;text-decoration-line:none;text-decoration-style:solid;text-decoration-color:#cc2c2c;letter-spacing:normal;word-spacing:normal;text-transform:none;direction:ltr;writing-mode:lr-tb;baseline-shift:baseline;text-anchor:start;white-space:normal;clip-rule:nonzero;display:inline;overflow:visible;visibility:visible;opacity:1;isolation:auto;mix-blend-mode:normal;color-interpolation:sRGB;color-interpolation-filters:linearRGB;solid-color:#cc2c2c;solid-opacity:1;fill:#cc2c2c;fill-opacity:1;fill-rule:nonzero;stroke:none;stroke-width:0.99999994;stroke-linecap:round;stroke-linejoin:round;stroke-miterlimit:4;stroke-dasharray:none;stroke-dashoffset:0;stroke-opacity:1;color-rendering:auto;image-rendering:auto;shape-rendering:auto;text-rendering:auto;enable-background:accumulate" d="m 26.4326,1035.1072 c 0.7622,-0.018 1.537,0.087 2.2988,0.3243 a 0.48637738,0.51410715 29.346241 0 0 0.2032,0.021 c 0.021,0.302 0.045,0.6029 0.045,0.9102 0,0.9144 -0.096,1.8052 -0.2754,2.666 -1.5393,-0.6118 -3.1329,-1.0293 -4.7441,-1.2383 -0.9511,-0.1234 -1.9063,-0.1545 -2.8594,-0.1406 1.44,-1.5918 3.3429,-2.4956 5.332,-2.543 z"></path><path style="color:#cc2c2c;font-style:normal;font-variant:normal;font-weight:normal;font-stretch:normal;font-size:medium;line-height:normal;font-family:sans-serif;text-indent:0;text-align:start;text-decoration:none;text-decoration-line:none;text-decoration-style:solid;text-decoration-color:#cc2c2c;letter-spacing:normal;word-spacing:normal;text-transform:none;direction:ltr;writing-mode:lr-tb;baseline-shift:baseline;text-anchor:start;white-space:normal;clip-rule:nonzero;display:inline;overflow:visible;visibility:visible;opacity:1;isolation:auto;mix-blend-mode:normal;color-interpolation:sRGB;color-interpolation-filters:linearRGB;solid-color:#cc2c2c;solid-opacity:1;fill:#cc2c2c;fill-opacity:1;fill-rule:nonzero;stroke:none;stroke-width:0.99999994;stroke-linecap:round;stroke-linejoin:round;stroke-miterlimit:4;stroke-dasharray:none;stroke-dashoffset:0;stroke-opacity:1;color-rendering:auto;image-rendering:auto;shape-rendering:auto;text-rendering:auto;enable-background:accumulate" d="m 9.583,1038.0272 c 1.5078,-0.017 3.022,0.3251 4.4551,1.0195 -1.7194,0.6881 -3.3494,1.6131 -4.8164,2.7891 -1.3617,0.2781 -2.7049,0.7001 -4.0039,1.2812 a 0.50005012,0.50005012 0 0 0 -0.2246,0.1777 c -0.6127,-0.9695 -1.1085,-2.0197 -1.4493,-3.1406 1.8343,-1.3847 3.9281,-2.1034 6.0391,-2.1269 z"></path><path style="color:#cc2c2c;font-style:normal;font-variant:normal;font-weight:normal;font-stretch:normal;font-size:medium;line-height:normal;font-family:sans-serif;text-indent:0;text-align:start;text-decoration:none;text-decoration-line:none;text-decoration-style:solid;text-decoration-color:#cc2c2c;letter-spacing:normal;word-spacing:normal;text-transform:none;direction:ltr;writing-mode:lr-tb;baseline-shift:baseline;text-anchor:start;white-space:normal;clip-rule:nonzero;display:inline;overflow:visible;visibility:visible;opacity:1;isolation:auto;mix-blend-mode:normal;color-interpolation:sRGB;color-interpolation-filters:linearRGB;solid-color:#cc2c2c;solid-opacity:1;fill:#cc2c2c;fill-opacity:1;fill-rule:nonzero;stroke:none;stroke-width:0.99999994;stroke-linecap:round;stroke-linejoin:round;stroke-miterlimit:4;stroke-dasharray:none;stroke-dashoffset:0;stroke-opacity:1;color-rendering:auto;image-rendering:auto;shape-rendering:auto;text-rendering:auto;enable-background:accumulate" d="m 21.3447,1038.6268 c 2.4055,-0.01 4.8248,0.4507 7.1094,1.3769 -0.6313,2.1693 -1.8071,4.1021 -3.377,5.6407 -2.7999,-2.2423 -6.1184,-3.6098 -9.5585,-4.0489 -1.3645,-0.1742 -2.7473,-0.1969 -4.125,-0.076 2.9623,-1.8901 6.4367,-2.8826 9.9511,-2.8926 z"></path><path style="color:#cc2c2c;font-style:normal;font-variant:normal;font-weight:normal;font-stretch:normal;font-size:medium;line-height:normal;font-family:sans-serif;text-indent:0;text-align:start;text-decoration:none;text-decoration-line:none;text-decoration-style:solid;text-decoration-color:#cc2c2c;letter-spacing:normal;word-spacing:normal;text-transform:none;direction:ltr;writing-mode:lr-tb;baseline-shift:baseline;text-anchor:start;white-space:normal;clip-rule:nonzero;display:inline;overflow:visible;visibility:visible;opacity:1;isolation:auto;mix-blend-mode:normal;color-interpolation:sRGB;color-interpolation-filters:linearRGB;solid-color:#cc2c2c;solid-opacity:1;fill:#cc2c2c;fill-opacity:1;fill-rule:nonzero;stroke:none;stroke-width:0.99999994;stroke-linecap:round;stroke-linejoin:round;stroke-miterlimit:4;stroke-dasharray:none;stroke-dashoffset:0;stroke-opacity:1;color-rendering:auto;image-rendering:auto;shape-rendering:auto;text-rendering:auto;enable-background:accumulate" d="m 12.9248,1042.4393 c 4.0689,-0.033 8.1046,1.2981 11.4004,3.8906 -2.2576,1.8919 -5.1662,3.0332 -8.3457,3.0332 -4.2966,0 -8.0909,-2.0891 -10.457,-5.2969 a 0.50005012,0.50005012 0 0 0 0.1035,-0.037 c 2.3378,-1.0457 4.8238,-1.5697 7.2988,-1.5898 z"></path><path style="color:#cc2c2c;font-style:normal;font-variant:normal;font-weight:normal;font-stretch:normal;font-size:medium;line-height:normal;font-family:sans-serif;text-indent:0;text-align:start;text-decoration:none;text-decoration-line:none;text-decoration-style:solid;text-decoration-color:#cc2c2c;letter-spacing:normal;word-spacing:normal;text-transform:none;direction:ltr;writing-mode:lr-tb;baseline-shift:baseline;text-anchor:start;white-space:normal;clip-rule:nonzero;display:inline;overflow:visible;visibility:visible;opacity:1;isolation:auto;mix-blend-mode:normal;color-interpolation:sRGB;color-interpolation-filters:linearRGB;solid-color:#cc2c2c;solid-opacity:1;fill:#cc2c2c;fill-opacity:1;fill-rule:evenodd;stroke:none;stroke-width:0.99999994;stroke-linecap:round;stroke-linejoin:round;stroke-miterlimit:4;stroke-dasharray:none;stroke-dashoffset:0;stroke-opacity:1;color-rendering:auto;image-rendering:auto;shape-rendering:auto;text-rendering:auto;enable-background:accumulate" d="m 13.0371,1028.2333 a 0.50004997,0.50004997 0 0 0 -0.4922,0.5078 l 0,3.8711 a 0.50004997,0.50004997 0 1 0 1,0 l 0,-3.8711 a 0.50004997,0.50004997 0 0 0 -0.5078,-0.5078 z"></path><path style="color:#cc2c2c;font-style:normal;font-variant:normal;font-weight:normal;font-stretch:normal;font-size:medium;line-height:normal;font-family:sans-serif;text-indent:0;text-align:start;text-decoration:none;text-decoration-line:none;text-decoration-style:solid;text-decoration-color:#cc2c2c;letter-spacing:normal;word-spacing:normal;text-transform:none;direction:ltr;writing-mode:lr-tb;baseline-shift:baseline;text-anchor:start;white-space:normal;clip-rule:nonzero;display:inline;overflow:visible;visibility:visible;opacity:1;isolation:auto;mix-blend-mode:normal;color-interpolation:sRGB;color-interpolation-filters:linearRGB;solid-color:#cc2c2c;solid-opacity:1;fill:#cc2c2c;fill-opacity:1;fill-rule:evenodd;stroke:none;stroke-width:0.99999994;stroke-linecap:round;stroke-linejoin:round;stroke-miterlimit:4;stroke-dasharray:none;stroke-dashoffset:0;stroke-opacity:1;color-rendering:auto;image-rendering:auto;shape-rendering:auto;text-rendering:auto;enable-background:accumulate" d="m 14.7988,1027.6474 a 0.50004997,0.50004997 0 0 0 -0.4922,0.5058 l 0,1.459 -1.2539,0 a 0.50004997,0.50004997 0 1 0 0,1 l 1.7539,0 a 0.50004997,0.50004997 0 0 0 0.5,-0.5 l 0,-1.959 a 0.50004997,0.50004997 0 0 0 -0.5078,-0.5058 z"></path><path style="color:#cc2c2c;font-style:normal;font-variant:normal;font-weight:normal;font-stretch:normal;font-size:medium;line-height:normal;font-family:sans-serif;text-indent:0;text-align:start;text-decoration:none;text-decoration-line:none;text-decoration-style:solid;text-decoration-color:#cc2c2c;letter-spacing:normal;word-spacing:normal;text-transform:none;direction:ltr;writing-mode:lr-tb;baseline-shift:baseline;text-anchor:start;white-space:normal;clip-rule:nonzero;display:inline;overflow:visible;visibility:visible;opacity:1;isolation:auto;mix-blend-mode:normal;color-interpolation:sRGB;color-interpolation-filters:linearRGB;solid-color:#cc2c2c;solid-opacity:1;fill:#cc2c2c;fill-opacity:1;fill-rule:evenodd;stroke:none;stroke-width:0.99999994;stroke-linecap:round;stroke-linejoin:round;stroke-miterlimit:4;stroke-dasharray:none;stroke-dashoffset:0;stroke-opacity:1;color-rendering:auto;image-rendering:auto;shape-rendering:auto;text-rendering:auto;enable-background:accumulate" d="m 11.2773,1029.4071 a 0.50004997,0.50004997 0 0 0 -0.4921,0.5079 l 0,1.4472 a 0.50004997,0.50004997 0 0 0 0.5,0.5 l 1.7519,0 a 0.50004997,0.50004997 0 1 0 0,-1 l -1.2519,0 0,-0.9472 a 0.50004997,0.50004997 0 0 0 -0.5079,-0.5079 z"></path><path style="color:#cc2c2c;font-style:normal;font-variant:normal;font-weight:normal;font-stretch:normal;font-size:medium;line-height:normal;font-family:sans-serif;text-indent:0;text-align:start;text-decoration:none;text-decoration-line:none;text-decoration-style:solid;text-decoration-color:#cc2c2c;letter-spacing:normal;word-spacing:normal;text-transform:none;direction:ltr;writing-mode:lr-tb;baseline-shift:baseline;text-anchor:start;white-space:normal;clip-rule:nonzero;display:inline;overflow:visible;visibility:visible;opacity:1;isolation:auto;mix-blend-mode:normal;color-interpolation:sRGB;color-interpolation-filters:linearRGB;solid-color:#cc2c2c;solid-opacity:1;fill:#cc2c2c;fill-opacity:1;fill-rule:nonzero;stroke:none;stroke-width:0.99999994;stroke-linecap:round;stroke-linejoin:round;stroke-miterlimit:4;stroke-dasharray:none;stroke-dashoffset:0;stroke-opacity:1;color-rendering:auto;image-rendering:auto;shape-rendering:auto;text-rendering:auto;enable-background:accumulate" d="m 16,1021.3622 c -8.2783,0 -15,6.7217 -15,15 0,8.2784 6.7217,15 15,15 8.2783,0 15,-6.7216 15,-15 0,-8.2783 -6.7217,-15 -15,-15 z m 0,1 c 7.7379,0 14,6.2621 14,14 0,7.7379 -6.2621,14 -14,14 -7.7379,0 -14,-6.2621 -14,-14 0,-7.7379 6.2621,-14 14,-14 z"></path></g></svg>
