<svg class="custom-icon" xmlns="http://www.w3.org/2000/svg" viewBox="0 0 100 100" style="width:50px;height:50px"><circle class="outer-shape" cx="50" cy="50" r="48" fill="#d82700"/><path class="inner-shape" d="M68.947 21.58H31.054c-5.21 0-9.474 4.264-9.474 9.475v37.89c0 5.215 4.264 9.475 9.474 9.475h37.892c5.212 0 9.474-4.26 9.474-9.474v-37.89c0-5.211-4.262-9.475-9.473-9.476zM69.904 50h-9.247v24.867H50V50h-5.136v-8.136H50v-5.283c0-7.18 3.097-11.45 11.539-11.45h9.727v8.803h-7.945c-2.358-.004-2.65 1.23-2.65 3.525l-.014 4.405h10.658l-1.41 8.135V50z" fill="#e8c53a"/></svg>