<svg style="object-fit: contain; width: 100%; height: 100%; max-width: 100%; max-height: 100%; margin-bottom:30px;"
   xmlns:dc="http://purl.org/dc/elements/1.1/"
   xmlns:cc="http://creativecommons.org/ns#"
   xmlns:rdf="http://www.w3.org/1999/02/22-rdf-syntax-ns#"
   xmlns:svg="http://www.w3.org/2000/svg"
   xmlns="http://www.w3.org/2000/svg"
   xml:space="preserve"
   enable-background="new 0 0 650.945 171.844"
   viewBox="0 0 650.945 171.844"
   height="171.844px"
   width="650.945px"
   y="0px"
   x="0px"
   id="Layer_1"
   version="1.1"><metadata
     id="metadata26"><rdf:RDF><cc:Work
         rdf:about=""><dc:format>image/svg+xml</dc:format><dc:type
           rdf:resource="http://purl.org/dc/dcmitype/StillImage" /><dc:title></dc:title></cc:Work></rdf:RDF></metadata><defs
     id="defs24" /><g
     style="fill:#aa0000"
     id="fire-global-path"><path
       style="fill:#f8fbf5; stroke: red; stroke-width: 3.5px; stroke-dasharray: 1;"
       id="fire-path4"
       d="M348.069,117.02c3.587-8.823,12.195-14.992,22.239-14.992c13.271,0,24.031,10.76,24.031,24.031   s-10.76,24.032-24.031,24.032c-10.044,0-18.652-6.169-22.239-14.921c-1.793,4.52-5.021,8.321-9.038,10.976   c0.143,10.33,8.608,18.724,18.938,18.724h31.062v5.094H357.97c-12.268,0-22.525-9.398-23.817-21.307   c-1.793,0.646-3.658,1.076-5.596,1.291v20.302h-5.093v-20.302c-2.009-0.143-3.874-0.574-5.667-1.219   c-1.363,11.908-11.55,21.234-23.817,21.234h-30.99v-5.094h30.99c10.259,0,18.724-8.322,18.938-18.58   c-4.304-2.727-7.675-6.815-9.469-11.621c-3.515,9.039-12.267,15.423-22.454,15.423c-13.271,0-24.032-10.761-24.032-24.032   s10.76-24.031,24.032-24.031c10.187,0,18.939,6.456,22.454,15.424c1.793-4.807,5.165-8.896,9.469-11.622   c-0.215-10.259-8.68-18.58-18.938-18.58h-30.99v-5.093h30.99c12.268,0,22.454,9.326,23.817,21.306   c1.793-0.646,3.658-1.076,5.667-1.292V81.94h5.093v20.229c1.938,0.216,3.803,0.718,5.596,1.363   c1.292-11.98,11.55-21.377,23.817-21.377h31.062v5.093H357.97c-10.33,0-18.796,8.465-18.938,18.796   C343.048,108.699,346.276,112.5,348.069,117.02z M351.298,126.059c0-10.545,8.537-19.082,19.011-19.082   c10.545,0,19.082,8.537,19.082,19.082c0,10.546-8.537,19.082-19.082,19.082C359.835,145.141,351.298,136.604,351.298,126.059z    M306.749,126.059c0-10.545,8.537-19.082,19.082-19.082c10.546,0,19.082,8.537,19.082,19.082c0,10.546-8.536,19.082-19.082,19.082   C315.286,145.141,306.749,136.604,306.749,126.059z M261.913,126.059c0-10.545,8.537-19.082,19.082-19.082   s19.082,8.537,19.082,19.082c0,10.546-8.537,19.082-19.082,19.082S261.913,136.604,261.913,126.059z" /><path
       style="fill:#f8fbf5; stroke: red; stroke-width: 3.5px; stroke-dasharray: 1;"
       id="fire-path6"
       d="M307.753,50.95c0,10.76,11.479,20.875,18.293,25.466c0.861-0.789,1.722-1.506,2.727-2.295   c6.887-5.452,14.993-13.486,14.993-23.171c0-4.591-2.439-10.115-3.803-13.415l-5.236-11.909c-2.654-5.739-8.681-18.149-8.681-25.61   c-0.43,0.646,0-0.359-0.502,1.147c-1.004,2.798-0.933,5.309-3.443,12.052C318.514,22.972,307.753,43.202,307.753,50.95z    M318.873,59.2c0-5.667,3.945-12.411,7.747-14.921c3.085,2.081,6.6,8.537,6.6,13.845c0,6.169-3.658,12.913-7.174,15.496   C322.459,72.687,318.873,63.576,318.873,59.2z" /><path
       style="fill:#aa0000 stroke: fill:#f8fbf5; stroke:#f8fbf5; stroke-width: 2px; stroke-dasharray: 2;"
       id="fire-path8"
       d="M211.123,170.249c-4.161,0-8.035-0.573-11.478-1.649c-3.515-1.076-6.528-2.727-9.039-5.021   c-2.511-2.225-4.447-5.021-5.882-8.394c-1.435-3.372-2.08-7.39-2.08-12.052c0-2.009,0.215-4.018,0.574-6.026   c0.43-2.009,1.076-3.874,1.937-5.596c0.933-1.793,2.008-3.372,3.372-4.806c1.435-1.363,3.013-2.583,4.95-3.443   c-3.156-1.723-5.452-4.232-6.887-7.604c-1.363-3.372-2.081-6.958-2.081-10.833c0-3.228,0.502-6.24,1.507-9.039   c1.004-2.797,2.511-5.164,4.52-7.173c2.08-2.009,4.663-3.587,7.748-4.663c3.156-1.148,6.815-1.722,10.976-1.722h39.599v27.905   H216.36c-2.511,0-3.73,1.292-3.73,3.874c0,2.439,1.22,3.73,3.73,3.73h28.767v15.137h-28.049c-3.228,0-4.806,1.507-4.806,4.591   c0,2.941,1.578,4.377,4.806,4.377H249v28.407H211.123z" /><path
       style="fill:#aa0000 stroke: fill:#f8fbf5; stroke:#f8fbf5; stroke-width: 2px; stroke-dasharray: 2;"
       id="fire-path10"
       d="M150.505,170.249l-15.782-28.91v28.91h-30.345V82.228h41.393c4.878,0,9.326,0.574,13.271,1.722   c3.946,1.076,7.317,2.798,10.043,5.094c2.798,2.295,4.878,5.236,6.385,8.823c1.506,3.587,2.295,7.819,2.295,12.769   c0,6.242-1.004,11.406-3.013,15.568c-2.009,4.088-5.094,7.604-9.254,10.401l18.867,33.645H150.505z M142.112,120.75   c3.228,0,4.878-1.793,4.878-5.236s-1.65-5.165-4.878-5.165h-7.389v10.401H142.112z" /><polygon
       style="fill:#aa0000 stroke: fill:#f8fbf5; stroke:#f8fbf5; stroke-width: 2px; stroke-dasharray: 2;"
       id="polygon12"
       points="63.129,170.249 63.129,82.228 93.617,82.228 93.617,170.249  " /><polygon
       style="fill:#aa0000 stroke: fill:#f8fbf5; stroke:#f8fbf5; stroke-width: 2px; stroke-dasharray: 2;"
       id="polygon14"
       points="0,170.249 0,82.228 54.879,82.228 54.879,110.349 30.345,110.349 30.345,116.375 54.736,116.375 54.736,136.891    30.345,136.891 30.345,170.249  " /><path
       style="fill:#aa0000 stroke: fill:#f8fbf5; stroke:#f8fbf5; stroke-width: 2px; stroke-dasharray: 2;"
       id="fire-path16"
       d="M630.284,170.249v-6.887c-2.151,2.511-5.236,4.52-9.254,6.098s-8.25,2.367-12.77,2.367c-5.954,0-11.55-1.004-16.786-3.085   c-5.165-2.08-9.685-5.093-13.486-9.11c-3.803-3.945-6.815-8.681-8.968-14.347c-2.224-5.596-3.371-11.98-3.371-19.082   c0-6.888,1.147-13.129,3.371-18.796c2.152-5.596,5.165-10.401,8.968-14.348c3.802-3.945,8.249-7.03,13.414-9.11   c5.166-2.152,10.761-3.229,16.644-3.229c12.913,0,23.027,3.372,30.345,10.115c7.246,6.743,11.335,16.141,12.124,28.121h-30.561   c-0.646-3.3-1.937-5.883-3.945-7.604c-2.08-1.722-4.663-2.653-7.748-2.653c-3.515,0-6.456,1.506-8.68,4.519   c-2.296,3.013-3.443,7.317-3.443,12.985c0,3.371,0.358,6.169,1.076,8.465c0.717,2.295,1.649,4.16,2.869,5.595   c1.147,1.363,2.439,2.439,3.874,3.013c1.363,0.646,2.869,0.934,4.304,0.934c3.085,0,5.452-0.789,7.103-2.512   c1.649-1.649,2.798-3.73,3.443-6.312h-12.411v-11.047h44.55v45.911H630.284z" /><path
       style="fill:#aa0000 stroke: fill:#f8fbf5; stroke:#f8fbf5; stroke-width: 2px; stroke-dasharray: 2;"
       id="fire-path18"
       d="M527.342,82.228h30.488v51.866c0,12.339-3.157,21.736-9.326,28.121c-6.241,6.456-15.352,9.612-27.332,9.612   c-12.123,0-21.449-3.156-27.978-9.541c-6.528-6.384-9.756-15.71-9.756-28.049v-52.01h30.488v55.022   c0,4.305,2.295,6.457,6.887,6.457c2.367,0,4.017-0.503,5.021-1.579c1.004-1.075,1.507-2.726,1.507-4.878V82.228z" /><path
       style="fill:#aa0000 stroke: fill:#f8fbf5; stroke:#f8fbf5; stroke-width: 2px; stroke-dasharray: 2;"
       id="fire-path20"
       d="M402.303,170.249V82.228h46.63c4.16,0,7.819,0.574,10.976,1.722c3.085,1.076,5.667,2.654,7.748,4.663   c2.008,2.009,3.515,4.376,4.52,7.173c1.004,2.799,1.506,5.812,1.506,9.039c0,3.875-0.717,7.461-2.152,10.833   c-1.506,3.372-3.802,5.882-6.958,7.604c3.874,1.793,6.6,4.52,8.394,8.178c1.722,3.587,2.582,7.532,2.582,11.693   c0,4.662-0.646,8.68-2.08,12.052s-3.372,6.169-5.883,8.394c-2.511,2.295-5.523,3.945-9.039,5.021   c-3.443,1.076-7.316,1.649-11.478,1.649H402.303z M441.113,141.842c3.228,0,4.807-1.436,4.807-4.377   c0-3.084-1.579-4.591-4.807-4.591h-8.394v8.968H441.113z M432.72,110.133v7.604h9.613c2.151,0,3.228-1.291,3.228-3.73   c0-2.582-1.076-3.874-3.228-3.874H432.72z" /></g></svg>
