<svg style="object-fit:contain;width:100%;height:100%;max-width:100%;max-height:100%;margin-bottom:30px" xmlns="http://www.w3.org/2000/svg" height="171.844" width="650.945"><g fill="#a00"><path d="M348.069 117.02c3.587-8.823 12.195-14.992 22.239-14.992 13.271 0 24.031 10.76 24.031 24.031s-10.76 24.032-24.031 24.032c-10.044 0-18.652-6.169-22.239-14.921-1.793 4.52-5.021 8.321-9.038 10.976.143 10.33 8.608 18.724 18.938 18.724h31.062v5.094H357.97c-12.268 0-22.525-9.398-23.817-21.307a24.377 24.377 0 01-5.596 1.291v20.302h-5.093v-20.302a20.985 20.985 0 01-5.667-1.219c-1.363 11.908-11.55 21.234-23.817 21.234h-30.99v-5.094h30.99c10.259 0 18.724-8.322 18.938-18.58-4.304-2.727-7.675-6.815-9.469-11.621-3.515 9.039-12.267 15.423-22.454 15.423-13.271 0-24.032-10.761-24.032-24.032s10.76-24.031 24.032-24.031c10.187 0 18.939 6.456 22.454 15.424 1.793-4.807 5.165-8.896 9.469-11.622-.215-10.259-8.68-18.58-18.938-18.58h-30.99v-5.093h30.99c12.268 0 22.454 9.326 23.817 21.306a24.183 24.183 0 015.667-1.292V81.94h5.093v20.229c1.938.216 3.803.718 5.596 1.363 1.292-11.98 11.55-21.377 23.817-21.377h31.062v5.093H357.97c-10.33 0-18.796 8.465-18.938 18.796 4.016 2.655 7.244 6.456 9.037 10.976zm3.229 9.039c0-10.545 8.537-19.082 19.011-19.082 10.545 0 19.082 8.537 19.082 19.082 0 10.546-8.537 19.082-19.082 19.082-10.474 0-19.011-8.537-19.011-19.082zm-44.549 0c0-10.545 8.537-19.082 19.082-19.082 10.546 0 19.082 8.537 19.082 19.082 0 10.546-8.536 19.082-19.082 19.082-10.545 0-19.082-8.537-19.082-19.082zm-44.836 0c0-10.545 8.537-19.082 19.082-19.082s19.082 8.537 19.082 19.082c0 10.546-8.537 19.082-19.082 19.082s-19.082-8.537-19.082-19.082zM307.753 50.95c0 10.76 11.479 20.875 18.293 25.466a45.662 45.662 0 012.727-2.295c6.887-5.452 14.993-13.486 14.993-23.171 0-4.591-2.439-10.115-3.803-13.415l-5.236-11.909c-2.654-5.739-8.681-18.149-8.681-25.61-.43.646 0-.359-.502 1.147-1.004 2.798-.933 5.309-3.443 12.052-3.587 9.757-14.348 29.987-14.348 37.735zm11.12 8.25c0-5.667 3.945-12.411 7.747-14.921 3.085 2.081 6.6 8.537 6.6 13.845 0 6.169-3.658 12.913-7.174 15.496-3.587-.933-7.173-10.044-7.173-14.42z" fill="#f8fbf5" stroke="red" stroke-width="3.5" stroke-dasharray="1"/><path d="M211.123 170.249c-4.161 0-8.035-.573-11.478-1.649-3.515-1.076-6.528-2.727-9.039-5.021-2.511-2.225-4.447-5.021-5.882-8.394-1.435-3.372-2.08-7.39-2.08-12.052 0-2.009.215-4.018.574-6.026a23.411 23.411 0 011.937-5.596c.933-1.793 2.008-3.372 3.372-4.806 1.435-1.363 3.013-2.583 4.95-3.443-3.156-1.723-5.452-4.232-6.887-7.604-1.363-3.372-2.081-6.958-2.081-10.833 0-3.228.502-6.24 1.507-9.039 1.004-2.797 2.511-5.164 4.52-7.173 2.08-2.009 4.663-3.587 7.748-4.663 3.156-1.148 6.815-1.722 10.976-1.722h39.599v27.905H216.36c-2.511 0-3.73 1.292-3.73 3.874 0 2.439 1.22 3.73 3.73 3.73h28.767v15.137h-28.049c-3.228 0-4.806 1.507-4.806 4.591 0 2.941 1.578 4.377 4.806 4.377H249v28.407h-37.877zM150.505 170.249l-15.782-28.91v28.91h-30.345V82.228h41.393c4.878 0 9.326.574 13.271 1.722 3.946 1.076 7.317 2.798 10.043 5.094 2.798 2.295 4.878 5.236 6.385 8.823 1.506 3.587 2.295 7.819 2.295 12.769 0 6.242-1.004 11.406-3.013 15.568-2.009 4.088-5.094 7.604-9.254 10.401l18.867 33.645h-33.86zm-8.393-49.499c3.228 0 4.878-1.793 4.878-5.236s-1.65-5.165-4.878-5.165h-7.389v10.401h7.389zM63.129 170.249V82.228h30.488v88.021zM0 170.249V82.228h54.879v28.121H30.345v6.026h24.391v20.516H30.345v33.358zM630.284 170.249v-6.887c-2.151 2.511-5.236 4.52-9.254 6.098s-8.25 2.367-12.77 2.367c-5.954 0-11.55-1.004-16.786-3.085-5.165-2.08-9.685-5.093-13.486-9.11-3.803-3.945-6.815-8.681-8.968-14.347-2.224-5.596-3.371-11.98-3.371-19.082 0-6.888 1.147-13.129 3.371-18.796 2.152-5.596 5.165-10.401 8.968-14.348 3.802-3.945 8.249-7.03 13.414-9.11 5.166-2.152 10.761-3.229 16.644-3.229 12.913 0 23.027 3.372 30.345 10.115 7.246 6.743 11.335 16.141 12.124 28.121h-30.561c-.646-3.3-1.937-5.883-3.945-7.604-2.08-1.722-4.663-2.653-7.748-2.653-3.515 0-6.456 1.506-8.68 4.519-2.296 3.013-3.443 7.317-3.443 12.985 0 3.371.358 6.169 1.076 8.465.717 2.295 1.649 4.16 2.869 5.595 1.147 1.363 2.439 2.439 3.874 3.013 1.363.646 2.869.934 4.304.934 3.085 0 5.452-.789 7.103-2.512 1.649-1.649 2.798-3.73 3.443-6.312h-12.411v-11.047h44.55v45.911h-20.662zM527.342 82.228h30.488v51.866c0 12.339-3.157 21.736-9.326 28.121-6.241 6.456-15.352 9.612-27.332 9.612-12.123 0-21.449-3.156-27.978-9.541-6.528-6.384-9.756-15.71-9.756-28.049v-52.01h30.488v55.022c0 4.305 2.295 6.457 6.887 6.457 2.367 0 4.017-.503 5.021-1.579 1.004-1.075 1.507-2.726 1.507-4.878V82.228zM402.303 170.249V82.228h46.63c4.16 0 7.819.574 10.976 1.722 3.085 1.076 5.667 2.654 7.748 4.663 2.008 2.009 3.515 4.376 4.52 7.173 1.004 2.799 1.506 5.812 1.506 9.039 0 3.875-.717 7.461-2.152 10.833-1.506 3.372-3.802 5.882-6.958 7.604 3.874 1.793 6.6 4.52 8.394 8.178 1.722 3.587 2.582 7.532 2.582 11.693 0 4.662-.646 8.68-2.08 12.052s-3.372 6.169-5.883 8.394c-2.511 2.295-5.523 3.945-9.039 5.021-3.443 1.076-7.316 1.649-11.478 1.649h-44.766zm38.81-28.407c3.228 0 4.807-1.436 4.807-4.377 0-3.084-1.579-4.591-4.807-4.591h-8.394v8.968h8.394zm-8.393-31.709v7.604h9.613c2.151 0 3.228-1.291 3.228-3.73 0-2.582-1.076-3.874-3.228-3.874h-9.613z" fill="#aa0000 stroke: fill:#f8fbf5" stroke="#f8fbf5" stroke-width="2" stroke-dasharray="2"/></g></svg>