<svg xmlns="http://www.w3.org/2000/svg" xmlns:xlink="http://www.w3.org/1999/xlink" version="1.1" x="0px" y="0px" viewBox="0 0 100 100" enable-background="new 0 0 100 100" xml:space="preserve"><path d="M51.3,96c0.2-0.2,0.3-0.4,0.6-0.6c0,0,0,0,0,0c0.4-0.3,0.9-0.3,1.4-0.2c1.7,0.6,6.4,2,9.5,2c4.3,0,8.4-3,8.4-7  c0.1-3.5-2-5.2-3.8-6.1c-2.3-1.1-7.2,0.2-7.4,4.2c0,0,3.3-3.3,3.4,0c0.1,3-9.4,3.9-9.3-2.1c0.1-0.8,0.2-1.3,0.2-1.5  c0.1,0.1,0.1,0.1,0.3,0.2c0.3,0.2,0.5,0.3,0.9,0.4c0.1,0,0.2,0,0.2,0c0,0,0.1,0,0.1,0l0.1,0l0.1,0l0.1,0l0.1,0c0.1,0,0.2,0,0.3-0.1  c0.3-0.1,0.6-0.3,0.9-0.5c0.2-0.3,0.4-0.6,0.4-0.9c0-0.3,0-0.7-0.2-1c-0.1-0.3-0.4-0.6-0.6-0.8c-0.1-0.1-0.3-0.2-0.4-0.2  c0,0,0,0,0,0c0.3,0.1,0.6,0.1,0.9,0.1c0.3,0,0.6,0,1-0.1c0.1,0,0.2-0.1,0.2-0.1c0,0,0.1,0,0.1-0.1l0.1-0.1l0.1,0l0.1,0l0.1-0.1  c0.1-0.1,0.1-0.1,0.2-0.2c0.2-0.3,0.4-0.6,0.4-0.9c0.1-0.3,0-0.7-0.1-1c-0.1-0.3-0.4-0.6-0.7-0.8c-0.3-0.2-0.6-0.3-0.9-0.3  c-0.1,0-0.2,0-0.4,0c0.2-0.1,0.5-0.2,0.7-0.3c0.3-0.2,0.5-0.3,0.8-0.6c0.1-0.1,0.1-0.1,0.2-0.2c0,0,0-0.1,0.1-0.1l0.1-0.1l0-0.1  l0-0.1l0-0.1c0-0.1,0-0.2,0.1-0.2c0.1-0.3,0-0.7-0.1-1c-0.1-0.3-0.4-0.6-0.7-0.8c-0.3-0.2-0.6-0.3-1-0.3c-0.1,0-0.2,0-0.3,0  c0.4-0.3,0.9-0.7,1.4-1.2c0.9-0.8,4.1-3.4,10.8,1c-0.4,0.4-0.7,0.9-0.9,1.5c-0.3,0.7-0.4,1.4-0.3,2.2c0.1,0.8,0.4,1.5,0.7,2.1  c0.1,0.3,0.3,0.5,0.5,0.8c0.1,0.1,0.2,0.2,0.3,0.3c0.2,0.2,0.4,0.5,0.6,0.7l0.2,0.2c0.1,0.1,0.2,0.2,0.4,0.3c0,0,0,0,0,0  c0.2,0.1,0.3,0.2,0.5,0.3l0,0c0.1,0.1,0.3,0.1,0.4,0.2l0.3,0.1c0.7,0.2,1.5,0.4,2.3,0.5c1.6,0.2,3.2,0.2,4.8-0.1  c0.8-0.1,1.6-0.3,2.4-0.6c0.8-0.3,1.5-0.7,2.2-1.2c1.3-1,2.3-2.5,2.8-4.2c0.5-1.6,0.4-3.4-0.1-5c-0.6-1.6-1.5-3.1-2.7-4.2  c-1.2-1.2-2.7-2.1-4.2-2.7c-3.1-1.2-6.4-1.5-9.5-1.3c-3.1,0.2-6.1,0.9-8.8,2c-1.2,0.5-2.3,1.1-3.3,1.9c0-0.1,0.1-0.1,0.1-0.2  c0.4-0.5,0.7-1,1-1.5c1.3-2.1,2.3-4.6,2.7-7.3c0.4-2.7,0.2-5.6-0.5-8.3c-0.7-2.8-1.7-5.4-2.8-8.1c-2.2-5.3-4.7-10.4-6.2-15.5  c-0.8-2.5-1.3-5-1.6-7.4c-0.1-0.6-0.1-1.2-0.2-1.8c0-0.3-0.1-0.6-0.1-0.9c0-0.3,0-0.6,0-0.9c0-0.6,0-1.1,0-1.7c0-0.5,0-1.1,0.1-1.6  c0-0.3,0-0.5,0-0.8c0-0.3,0.1-0.5,0.1-0.8c0.1-0.5,0.1-1,0.2-1.5c0-0.5,0.1-0.9,0.2-1.4c0.1-0.4,0.2-0.9,0.2-1.3  c0-0.2,0.1-0.4,0.1-0.5l0,0c0,0,0,0,0-0.1c0,0,0-0.1,0-0.1C52,6.4,52,6.3,52,6.3s0.3-1.7,0.3-1.7c0.1-0.7,0.1-1.2-0.3-0.1  c-0.3,0.6-0.6,1.6-0.6,1.6s0,0.1-0.1,0.2c0,0.1,0,0.2-0.1,0.3l0,0l0,0.1c0,0.2-0.1,0.5-0.1,0.7c-0.1,0.5-0.2,0.9-0.3,1.4  c0,0.2-0.1,0.5-0.1,0.7c0,0.3-0.1,0.5-0.1,0.8c-0.1,0.5-0.1,1-0.2,1.6c-0.3,4.3,0.1,9.5,1.6,14.7c0.8,2.6,1.7,5.2,2.8,7.9  c1.1,2.6,2.3,5.3,3.4,7.9c1.1,2.7,2.2,5.3,2.9,8.1c0.1,0.3,0.2,0.7,0.2,1l0.2,1c0.1,0.7,0.2,1.4,0.3,2.1c0,0.7,0.1,1.4,0.1,2  c0,0.3,0,0.7-0.1,1c0,0.3,0,0.7-0.1,1c-0.3,2.7-1.3,5.1-2.6,7.2c-0.3,0.5-0.7,1-1,1.5c-0.4,0.5-0.7,0.9-1.1,1.4  c-0.2,0.2-0.4,0.5-0.5,0.7c-0.2,0.2-0.4,0.4-0.6,0.6c-0.1,0.1-0.2,0.3-0.4,0.4c-0.4,0.4-0.6,0.7-0.7,0.7c0,0-0.1,0.1-0.3,0.3  c0,0,0,0,0,0c-0.3,0.2-0.5,0.4-0.7,0.7c-0.1,0.1-0.1,0.2-0.2,0.3c0-0.3,0-0.5,0-0.8c0-0.3-0.1-0.6-0.2-0.9c0-0.1-0.1-0.2-0.1-0.2  c0,0,0-0.1-0.1-0.1l-0.1-0.1l0-0.1l0,0l-0.1-0.1c-0.1-0.1-0.1-0.1-0.2-0.2c-0.3-0.2-0.6-0.3-1-0.4c-0.3,0-0.7,0.1-1,0.2  c-0.3,0.2-0.5,0.4-0.7,0.7c-0.1,0.1-0.1,0.3-0.1,0.4c-0.7-4.6-3.2-6.7-1.7-18.9c3.8-29.9,0.1-31.3,0.1-31.3  c4.9,12.8-15.1,31.3-5.9,47.3c-1-0.7-2-1.3-3.2-1.8c-2.7-1.1-5.7-1.8-8.8-2c-3.1-0.2-6.4,0.1-9.5,1.3c-1.5,0.6-3,1.5-4.2,2.7  c-1.2,1.2-2.1,2.6-2.7,4.2c-0.5,1.6-0.6,3.4-0.1,5c0.4,1.7,1.5,3.1,2.8,4.2c0.7,0.5,1.4,0.9,2.2,1.2c0.8,0.3,1.6,0.5,2.4,0.6  c1.6,0.3,3.2,0.3,4.8,0.1c0.8-0.1,1.5-0.3,2.3-0.5L29,83c0.2-0.1,0.3-0.1,0.4-0.2l0,0c0.2-0.1,0.4-0.2,0.5-0.3c0,0,0,0,0,0  c0.1-0.1,0.3-0.2,0.4-0.3l0.2-0.2c0.2-0.2,0.4-0.4,0.6-0.7c0.1-0.1,0.2-0.2,0.3-0.3c0.2-0.2,0.4-0.5,0.5-0.8  c0.4-0.7,0.7-1.4,0.7-2.1c0.1-0.8,0-1.5-0.3-2.2c-0.2-0.5-0.5-1-0.9-1.5c6.7-4.4,9.9-1.9,10.8-1c0.1,0.1,1,1.1,1.4,1.5  c-0.1,0-0.1-0.1-0.2-0.1c-0.3-0.1-0.6-0.2-1-0.2c-0.3,0-0.7,0.1-1,0.3c-0.3,0.2-0.5,0.5-0.7,0.8c-0.1,0.3-0.2,0.7-0.1,1  c0,0.1,0,0.2,0.1,0.2l0,0.1l0,0.1l0,0.1l0.1,0.1c0,0,0,0.1,0.1,0.1c0.1,0.1,0.1,0.1,0.2,0.2c0.2,0.3,0.5,0.4,0.8,0.6  c0.2,0.1,0.5,0.2,0.7,0.3c-0.1,0-0.2,0-0.4,0c-0.3,0-0.6,0.1-0.9,0.3c-0.3,0.2-0.5,0.4-0.7,0.8c-0.1,0.3-0.2,0.7-0.1,1  c0.1,0.3,0.2,0.7,0.4,0.9c0.1,0.1,0.1,0.1,0.2,0.2l0.1,0.1l0.1,0l0.1,0l0.1,0.1c0,0,0.1,0,0.1,0.1c0.1,0,0.2,0.1,0.2,0.1  c0.3,0.1,0.6,0.1,1,0.1c0.3,0,0.6-0.1,0.9-0.1c0,0,0,0,0,0c-0.2,0.1-0.3,0.1-0.4,0.2c-0.3,0.2-0.5,0.5-0.6,0.8  c-0.1,0.3-0.2,0.7-0.2,1c0,0.3,0.2,0.7,0.4,0.9c0.2,0.3,0.5,0.4,0.9,0.5c0.1,0,0.2,0,0.3,0.1l0.1,0l0.1,0l0.1,0l0.1,0  c0,0,0.1,0,0.1,0c0.1,0,0.2,0,0.2,0c0.3-0.1,0.6-0.2,0.9-0.4c0.1,0,0.1-0.1,0.2-0.2c1.8,7.5-9.2,6.7-9.1,3.5c0.1-3.2,3.4,0,3.4,0  c-0.2-4-5.1-5.3-7.4-4.2c-1.7,0.9-3.8,2.6-3.8,6.1c0.1,4,4.2,7,8.4,7c3.2,0,7.8-1.4,9.5-2c0.5-0.2,1-0.1,1.4,0.2c0,0,0,0,0,0  c0.2,0.2,0.4,0.3,0.6,0.6c0.2,0.2,1.1,1.9,1.1,1.9L51.3,96z M28.1,72.3c-0.1,0-0.2,0-0.3,0c-1.4,0.1-2.5,0.9-3.1,1.9  c-0.3,0.5-0.5,1.2-0.4,1.8c0,0.1,0.1,0.3,0.1,0.5l0.1,0.2l0.2,0.2c0.2,0.2,0.5,0.3,0.8,0.4c0.1,0,0.3,0.1,0.4,0.1c0.1,0,0.1,0,0.2,0  l0.1,0l0,0c0,0,0.1,0,0.1,0c0.1,0,0.1,0,0.2,0c0.2,0,0.3,0,0.3,0s0.1,0,0.3-0.1c0.2-0.1,0.4-0.2,0.6-0.4c0.4-0.4,0.5-0.9,0.5-0.8  c0-0.1,0-0.2,0.1-0.3c0-0.1,0-0.2,0-0.2c0-0.1-0.1-0.3-0.1-0.3s-0.6,1-2,0.4c-0.2-0.1-0.3-0.2-0.4-0.4c-0.4-0.8,0-1.8,0.9-2.2  c0,0,0.1,0,0.1,0c0.5-0.2,1.1-0.3,1.7-0.2c0.6,0.1,1.2,0.3,1.7,0.7c0,0,0,0,0,0c1.5,1.2,1.4,3.6-0.3,4.5c-2.4,1.4-6,2.3-9.7-2.2  c-3-3.6,0.9-8.1,4.6-9.8c4.1-1.9,11.8-0.6,14.4,0.5c1.3,0.5,2.5,1.2,3.6,2c0.5,0.4,1,0.9,1.3,1.4c0.1,0.1,0.2,0.2,0.3,0.4l0,0l0,0  c0.2,0.3,0.3,0.5,0.3,0.6c-0.3,0-0.5,0.1-0.8,0.3c-0.1,0.1-0.2,0.2-0.3,0.3C37.1,68,30,71.3,28.1,72.3z M43.7,73.2  c0-0.2,0-0.5,0.1-0.7c0.1-0.2,0.3-0.4,0.5-0.5c0.2-0.1,0.4-0.2,0.7-0.2c0.1,0,0.2,0,0.4,0.1c0.1,0,0.2,0.1,0.3,0.2  c0.2,0.1,0.4,0.3,0.5,0.6c0,0.1,0.1,0.1,0.1,0.2c0,0,0,0.1,0,0.1l0,0.1c0,0.1,0,0.3,0,0.4c0,0,0,0,0,0l0,0l0,0c0,0,0,0,0,0.1  c0,0,0,0.1,0,0.1c0,0.1-0.1,0.1-0.2,0.2c0,0,0,0,0,0c0,0,0,0-0.1,0.1c-0.1,0-0.2,0.1-0.3,0.1c-0.1,0-0.3,0-0.5,0  c-0.1-0.1-0.3-0.2-0.3-0.3c0-0.1,0-0.2,0-0.3c0-0.1,0-0.2,0.1-0.2C45,73,45,73,45,73c0,0,0,0-0.1,0.1c0,0,0,0,0,0.1c0,0,0,0,0,0.1  c0,0.1-0.1,0.3,0,0.4c0,0,0,0,0,0c0,0,0,0.1,0.1,0.2c0,0.1,0.1,0.1,0.2,0.2c0.1,0.1,0.2,0.1,0.3,0.1c0.2,0,0.5,0,0.6,0  c0,0,0.1,0,0.1,0c0,0,0.1,0,0.1,0c0,0,0,0,0.1,0c0,0,0,0,0,0c0.1-0.1,0.2-0.2,0.2-0.3c0,0,0.1-0.1,0.1-0.2l0,0l0,0c0,0,0,0,0-0.1  l0-0.1c0,0,0-0.1,0-0.1c0,0,0-0.1,0-0.1c0,0,0,0,0,0c0,0,0,0.1,0,0.1c0,0.1,0.1,0.3,0.1,0.4c0.1,0.3,0.2,0.6,0.3,0.9  c0.2,0.6,0.4,1.1,0.7,1.6c0.1,0.3,0.3,0.6,0.5,0.8c-1-0.2-2.6-0.8-3.7-2c-0.1-0.1-0.1-0.1-0.2-0.2C44,74.2,43.7,73.7,43.7,73.2z   M42.3,77.5c-0.2-0.1-0.4-0.3-0.6-0.5c-0.1-0.2-0.2-0.4-0.3-0.7c0-0.2,0-0.5,0.1-0.7c0.1-0.2,0.3-0.4,0.5-0.5  c0.1-0.1,0.2-0.1,0.3-0.1c0.1,0,0.2,0,0.4,0c0.3,0,0.5,0.1,0.7,0.2c0.1,0,0.1,0.1,0.2,0.1c0,0,0,0,0.1,0.1l0.1,0.1  c0.1,0.1,0.2,0.2,0.2,0.3c0,0,0,0,0,0l0,0l0,0c0,0,0,0,0,0.1c0,0,0,0.1,0,0.1c0,0.1,0,0.2,0,0.2c0,0,0,0,0,0c0,0,0,0,0,0.1  c0,0.1-0.1,0.2-0.2,0.3c-0.1,0.1-0.2,0.2-0.4,0.2c-0.2,0-0.3,0-0.4-0.1c-0.1-0.1-0.2-0.2-0.2-0.3c0-0.1,0-0.2,0-0.2  c0-0.1,0-0.1,0-0.1c0,0,0,0,0,0.1c0,0,0,0,0,0.1c0,0,0,0.1,0,0.1c0,0.1,0.1,0.3,0.2,0.4c0,0,0,0,0,0c0,0,0.1,0.1,0.2,0.1  c0.1,0,0.2,0.1,0.3,0.1c0.1,0,0.2,0,0.3-0.1c0.2-0.1,0.4-0.2,0.5-0.4c0,0,0.1-0.1,0.1-0.1c0,0,0-0.1,0-0.1c0,0,0,0,0-0.1  c0,0,0,0,0,0c0-0.1,0.1-0.2,0.1-0.3c0-0.1,0-0.1,0-0.2l0,0l0,0c0,0,0,0,0-0.1l0-0.1c0,0,0,0,0-0.1c0.1,0.1,0.2,0.2,0.3,0.3  c0.2,0.2,0.4,0.4,0.7,0.6c0.5,0.4,1,0.7,1.5,1c0.1,0.1,0.3,0.2,0.4,0.2C46.4,77.8,44.2,78.3,42.3,77.5z M43.5,81.4  c-0.5,0.1-1,0.1-1.4-0.1c-0.2-0.1-0.4-0.2-0.6-0.4c-0.1-0.2-0.2-0.4-0.3-0.7c0-0.2,0-0.5,0.1-0.7c0.1-0.1,0.1-0.2,0.2-0.3  c0.1-0.1,0.2-0.2,0.3-0.2c0.2-0.1,0.5-0.2,0.7-0.2c0.1,0,0.1,0,0.2,0c0,0,0.1,0,0.1,0l0.1,0c0.1,0,0.2,0.1,0.3,0.2c0,0,0,0,0,0l0,0  l0,0c0,0,0,0,0,0c0,0,0,0.1,0.1,0.1c0,0.1,0.1,0.1,0.1,0.2c0,0,0,0,0,0c0,0,0,0.1,0,0.1c0,0.1,0,0.2,0,0.3c0,0.1-0.1,0.3-0.2,0.4  c-0.1,0.1-0.3,0.2-0.4,0.1c-0.1,0-0.2-0.1-0.3-0.1c-0.1-0.1-0.1-0.1-0.1-0.2c0,0,0-0.1,0-0.1c0,0,0,0,0,0.1c0,0,0,0,0,0.1  c0,0,0,0,0,0.1c0.1,0.1,0.2,0.2,0.4,0.2c0,0,0,0,0.1,0c0,0,0.1,0,0.2,0c0.1,0,0.2,0,0.3-0.1c0.1-0.1,0.2-0.1,0.2-0.2  c0.1-0.2,0.2-0.4,0.2-0.6c0,0,0-0.1,0-0.1c0,0,0-0.1,0-0.1c0,0,0,0,0-0.1c0,0,0,0,0,0c0-0.1-0.1-0.2-0.1-0.3c0,0-0.1-0.1-0.1-0.1  l0,0l0,0c0,0,0,0,0,0l-0.1-0.1c0,0-0.1,0-0.1-0.1c0,0-0.1,0-0.1-0.1c0,0,0,0,0,0c0,0,0.1,0,0.1,0c0.1,0,0.3,0.1,0.4,0.1  c0.3,0.1,0.6,0.1,0.9,0.1c0.6,0.1,1.2,0.1,1.8,0.1c0.2,0,0.5,0,0.7,0C46.6,79.6,45.3,80.9,43.5,81.4z M45.3,84.6  c-0.2,0.1-0.4,0.2-0.7,0.3c-0.2,0-0.5,0-0.7-0.1c-0.2-0.1-0.4-0.2-0.6-0.4c-0.1-0.2-0.2-0.4-0.2-0.7c0-0.1,0-0.2,0-0.4  c0-0.1,0.1-0.2,0.1-0.4c0.1-0.2,0.3-0.4,0.5-0.6c0.1,0,0.1-0.1,0.2-0.1c0,0,0,0,0.1,0l0.1,0c0.1,0,0.3-0.1,0.4,0c0,0,0,0,0,0l0,0  l0,0c0,0,0,0,0.1,0c0,0,0.1,0,0.1,0c0.1,0,0.1,0.1,0.2,0.1c0,0,0,0,0,0c0,0,0,0,0.1,0.1c0,0.1,0.1,0.2,0.1,0.3c0,0.1,0.1,0.3,0,0.5  c0,0.2-0.2,0.3-0.3,0.4c-0.1,0.1-0.2,0.1-0.3,0.1c-0.1,0-0.2,0-0.2-0.1c-0.1-0.1-0.1-0.1-0.1-0.1c0,0,0,0,0.1,0.1c0,0,0,0,0.1,0  c0,0,0,0,0.1,0c0.1,0,0.3,0,0.4,0c0,0,0,0,0,0c0,0,0.1,0,0.2-0.1c0.1,0,0.1-0.1,0.2-0.2c0-0.1,0.1-0.2,0.1-0.3c0-0.2,0-0.5-0.1-0.6  c0,0,0-0.1-0.1-0.1c0,0,0-0.1-0.1-0.1c0,0,0,0,0,0c0,0,0,0,0,0c-0.1-0.1-0.2-0.2-0.3-0.2c-0.1,0-0.1,0-0.2-0.1l0,0l0,0  c0,0,0,0-0.1,0l-0.1,0c0,0-0.1,0-0.1,0c0,0-0.1,0-0.1,0c0,0-0.1,0-0.1,0c0,0-0.1,0-0.1,0c0.1,0,0.2-0.1,0.3-0.1  c0.1,0,0.3-0.1,0.4-0.1c0.3-0.1,0.6-0.2,0.8-0.3c0.5-0.3,1-0.5,1.5-0.9c0.1-0.1,0.3-0.2,0.4-0.3C47.4,80.8,47,83.1,45.3,84.6z   M49.4,85.3c-0.1,0.4-0.3,0.8-0.6,1c-0.2,0.2-0.4,0.3-0.6,0.3c-0.2,0.1-0.5,0-0.7,0c-0.2-0.1-0.4-0.2-0.6-0.4  c-0.1-0.1-0.1-0.2-0.2-0.3c0-0.1-0.1-0.2-0.1-0.4c0-0.3,0-0.5,0.1-0.8c0-0.1,0.1-0.1,0.1-0.2c0,0,0,0,0.1-0.1l0.1-0.1  c0.1-0.1,0.2-0.2,0.3-0.2c0,0,0,0,0,0l0,0l0,0c0,0,0,0,0.1,0c0,0,0.1,0,0.1,0c0.1,0,0.2,0,0.2,0c0,0,0,0,0,0c0,0,0.1,0,0.1,0  c0.1,0,0.2,0.1,0.3,0.2c0.1,0.1,0.2,0.2,0.3,0.4c0,0.2,0,0.3-0.1,0.5c-0.1,0.1-0.2,0.2-0.2,0.2c-0.1,0-0.1,0.1-0.2,0.1  c-0.1,0-0.1,0-0.1,0c0,0,0,0,0.1,0c0,0,0,0,0.1,0c0,0,0.1,0,0.1,0c0.1,0,0.3-0.1,0.4-0.3c0,0,0,0,0,0c0,0,0.1-0.1,0.1-0.2  c0-0.1,0-0.2,0-0.3c0-0.1,0-0.2-0.1-0.3c-0.1-0.2-0.3-0.4-0.4-0.5c0,0-0.1,0-0.1-0.1c0,0-0.1,0-0.1,0c0,0,0,0-0.1,0c0,0,0,0,0,0  c-0.1,0-0.2,0-0.3,0c-0.1,0-0.1,0-0.2,0l0,0l0,0c0,0,0,0-0.1,0L47,83.9c0,0-0.1,0-0.1,0.1c0,0-0.1,0-0.1,0.1  c0.1-0.1,0.2-0.2,0.3-0.3c0.2-0.2,0.4-0.5,0.5-0.7c0.3-0.5,0.6-1,0.9-1.5c0.1-0.2,0.2-0.5,0.3-0.7C49.1,81.5,49.8,83.4,49.4,85.3z   M49.7,76.3c-0.8-0.6-2-1.9-2.5-3.6c0-0.1,0-0.1,0-0.2c-0.1-0.6,0-1.1,0.2-1.6c0.1-0.2,0.3-0.4,0.5-0.5c0.2-0.1,0.4-0.2,0.7-0.2  c0.2,0,0.5,0.1,0.7,0.2c0.1,0.1,0.2,0.1,0.3,0.2c0.1,0.1,0.1,0.2,0.2,0.3c0.1,0.2,0.2,0.5,0.1,0.8c0,0.1,0,0.1,0,0.2  c0,0,0,0.1,0,0.1l0,0.1c-0.1,0.1-0.1,0.2-0.2,0.3c0,0,0,0,0,0l0,0l0,0c0,0,0,0,0,0c0,0-0.1,0-0.1,0.1c-0.1,0-0.1,0.1-0.2,0.1  c0,0,0,0,0,0c0,0-0.1,0-0.1,0c-0.1,0-0.2,0-0.3-0.1c-0.1-0.1-0.3-0.1-0.4-0.3c-0.1-0.1-0.1-0.3-0.1-0.5c0-0.1,0.1-0.2,0.1-0.3  c0.1-0.1,0.1-0.1,0.2-0.1c0.1,0,0.1,0,0.1,0c0,0,0,0-0.1,0c0,0,0,0-0.1,0c0,0,0,0-0.1,0c-0.1,0.1-0.2,0.2-0.3,0.4c0,0,0,0,0,0.1  c0,0,0,0.1,0,0.2c0,0.1,0,0.2,0.1,0.3c0,0.1,0.1,0.2,0.2,0.3c0.2,0.2,0.4,0.3,0.6,0.3c0,0,0.1,0,0.1,0c0,0,0.1,0,0.1,0  c0,0,0,0,0.1,0c0,0,0,0,0,0c0.1,0,0.2,0,0.3-0.1c0.1,0,0.1-0.1,0.1-0.1l0,0l0,0c0,0,0,0,0,0l0.1-0.1c0,0,0.1-0.1,0.1-0.1  c0,0,0.2-0.3,0.2-0.4C50.2,72.5,49.9,74.9,49.7,76.3z M53.4,74.4c0.1-0.3,0.2-0.6,0.3-0.9c0-0.1,0.1-0.3,0.1-0.4c0,0,0-0.1,0-0.1  c0,0,0,0,0,0c0,0,0,0.1,0,0.1c0,0,0,0.1,0,0.1l0,0.1c0,0,0,0,0,0.1l0,0l0,0c0,0.1,0,0.1,0.1,0.2c0.1,0.1,0.1,0.2,0.2,0.3  c0,0,0,0,0,0c0,0,0,0,0.1,0c0,0,0.1,0,0.1,0c0,0,0.1,0,0.1,0c0.2,0.1,0.4,0.1,0.6,0c0.1,0,0.2-0.1,0.3-0.1c0.1-0.1,0.2-0.1,0.2-0.2  c0-0.1,0.1-0.1,0.1-0.2c0,0,0-0.1,0,0c0-0.2,0-0.3,0-0.4c0,0,0-0.1,0-0.1c0,0,0,0,0-0.1c0,0,0,0-0.1-0.1c0,0,0,0,0.1,0.1  c0,0,0.1,0.1,0.1,0.2c0,0.1,0,0.2,0,0.3c0,0.1-0.2,0.3-0.3,0.3C55.2,74,55,74,54.9,74c-0.1,0-0.2-0.1-0.3-0.1c0,0-0.1,0-0.1-0.1  c0,0,0,0,0,0c-0.1,0-0.1-0.1-0.2-0.2c0,0,0-0.1,0-0.1c0,0,0,0,0-0.1l0,0l0,0c0,0,0,0,0,0c0-0.1,0-0.3,0-0.4l0-0.1c0,0,0-0.1,0-0.1  c0-0.1,0-0.1,0.1-0.2c0.1-0.2,0.3-0.4,0.5-0.6c0.1-0.1,0.2-0.1,0.3-0.2c0.1,0,0.2-0.1,0.4-0.1c0.2,0,0.5,0.1,0.7,0.2  c0.2,0.1,0.4,0.3,0.5,0.5c0.1,0.2,0.1,0.5,0.1,0.7c0,0.1,0,0.2-0.1,0.4l-0.6,1.1c0,0-0.1,0.1-0.1,0.1l0,0c-1.1,1.3-2.8,1.8-3.8,2.1  c0.2-0.3,0.4-0.6,0.5-0.8C53,75.5,53.2,75,53.4,74.4z M50.9,76.2c-0.2-1.3-0.5-3.7-0.5-4c0,0,0.2,0.3,0.2,0.3c0,0,0,0.1,0.1,0.1  l0.1,0.1c0,0,0,0,0,0l0,0l0,0c0,0,0.1,0.1,0.1,0.1c0.1,0.1,0.2,0.1,0.3,0.1c0,0,0,0,0,0c0,0,0,0,0.1,0c0,0,0.1,0,0.1,0  c0,0,0.1,0,0.1,0c0.2,0,0.4-0.1,0.6-0.3c0.1-0.1,0.2-0.2,0.2-0.3c0-0.1,0.1-0.2,0.1-0.3c0-0.1,0-0.1,0-0.2c0,0,0-0.1,0-0.1  c-0.1-0.2-0.2-0.3-0.3-0.4c0,0,0,0-0.1,0c0,0,0,0-0.1,0c0,0-0.1,0-0.1,0c0,0,0,0,0.1,0c0,0,0.1,0.1,0.2,0.1c0.1,0.1,0.1,0.2,0.1,0.3  c0,0.2,0,0.3-0.1,0.5c-0.1,0.1-0.2,0.2-0.4,0.3c-0.1,0.1-0.2,0.1-0.3,0.1c0,0-0.1,0-0.1,0c0,0,0,0,0,0c-0.1,0-0.2,0-0.2-0.1  c0,0-0.1,0-0.1-0.1c0,0,0,0,0,0l0,0l0,0c0,0,0,0,0,0c-0.1-0.1-0.1-0.2-0.2-0.3l0-0.1c0,0,0-0.1,0-0.1c0-0.1,0-0.1,0-0.2  c0-0.3,0-0.5,0.1-0.8c0.1-0.1,0.1-0.2,0.2-0.3c0.1-0.1,0.2-0.2,0.3-0.2c0.2-0.1,0.4-0.2,0.7-0.2c0.2,0,0.5,0.1,0.7,0.2  c0.2,0.1,0.4,0.3,0.5,0.5c0.2,0.4,0.2,1,0.2,1.6c0,0,0,0.1,0,0.1C52.9,74.3,51.6,75.5,50.9,76.2z M53.8,85.8c0,0.1-0.1,0.2-0.2,0.3  c-0.1,0.2-0.3,0.3-0.6,0.4c-0.2,0.1-0.5,0.1-0.7,0c-0.2-0.1-0.4-0.2-0.6-0.3c-0.3-0.3-0.5-0.7-0.6-1.1c-0.3-1.8,0.3-3.7,0.7-4.5  c0.1,0.3,0.2,0.5,0.3,0.7c0.3,0.5,0.5,1,0.9,1.5c0.2,0.2,0.3,0.5,0.5,0.7c0.1,0.1,0.2,0.2,0.3,0.3c0,0,0,0-0.1-0.1  c0,0-0.1,0-0.1-0.1l-0.1-0.1c0,0,0,0-0.1,0l0,0l0,0c-0.1,0-0.1,0-0.2,0c-0.1,0-0.2,0-0.3,0c0,0,0,0,0,0c0,0,0,0-0.1,0  c0,0-0.1,0-0.1,0c0,0-0.1,0-0.1,0.1c-0.2,0.1-0.3,0.3-0.4,0.5c-0.1,0.1-0.1,0.2-0.1,0.3c0,0.1,0,0.2,0,0.3c0,0.1,0.1,0.1,0.1,0.2  c0,0,0,0.1,0,0c0.1,0.1,0.2,0.2,0.4,0.3c0,0,0.1,0,0.1,0c0,0,0,0,0.1,0c0,0,0.1,0,0.1,0c0,0,0,0-0.1,0c-0.1,0-0.1,0-0.2-0.1  c-0.1,0-0.2-0.1-0.2-0.2c-0.1-0.1-0.1-0.3-0.1-0.5c0-0.2,0.1-0.3,0.3-0.4c0.1-0.1,0.2-0.2,0.3-0.2c0,0,0.1,0,0.1,0c0,0,0,0,0,0  c0.1,0,0.2,0,0.2,0c0,0,0.1,0,0.1,0c0,0,0,0,0.1,0l0,0l0,0c0,0,0,0,0,0c0.1,0.1,0.2,0.1,0.3,0.2l0.1,0.1c0,0,0,0,0.1,0.1  c0,0.1,0.1,0.1,0.1,0.2c0.1,0.2,0.1,0.5,0.1,0.8C53.8,85.6,53.8,85.7,53.8,85.8z M56.7,82.4c0.2,0.1,0.4,0.4,0.5,0.6  c0.1,0.1,0.1,0.2,0.1,0.4c0,0.1,0,0.2,0,0.4c0,0.2-0.1,0.5-0.2,0.7c-0.1,0.2-0.3,0.3-0.6,0.4c-0.2,0.1-0.5,0.1-0.7,0.1  c-0.2,0-0.5-0.1-0.7-0.3c-1.6-1.5-2.1-3.8-2.2-4.4c0.1,0.1,0.3,0.2,0.4,0.3c0.5,0.3,1,0.6,1.5,0.9c0.3,0.1,0.5,0.2,0.8,0.3  c0.1,0.1,0.3,0.1,0.4,0.1c0.1,0,0.2,0.1,0.3,0.1c0,0-0.1,0-0.1,0c0,0-0.1,0-0.1,0c0,0-0.1,0-0.1,0c0,0-0.1,0-0.1,0l-0.1,0  c0,0,0,0-0.1,0l0,0l0,0c-0.1,0-0.1,0-0.2,0.1c-0.1,0-0.2,0.1-0.3,0.2c0,0,0,0,0,0c0,0,0,0,0,0c0,0,0,0-0.1,0.1c0,0,0,0.1-0.1,0.1  c-0.1,0.2-0.1,0.4-0.1,0.6c0,0.1,0,0.2,0.1,0.3c0,0.1,0.1,0.2,0.2,0.2c0.1,0.1,0.1,0.1,0.2,0.1c0,0,0.1,0,0,0c0.2,0.1,0.3,0.1,0.4,0  c0,0,0.1,0,0.1,0c0,0,0,0,0.1,0c0,0,0,0,0.1-0.1c0,0,0,0-0.1,0.1c0,0-0.1,0.1-0.2,0.1c-0.1,0-0.2,0-0.3-0.1  c-0.1-0.1-0.3-0.2-0.3-0.4c0-0.2,0-0.3,0-0.5c0-0.1,0.1-0.2,0.1-0.3c0,0,0-0.1,0.1-0.1c0,0,0,0,0,0c0.1-0.1,0.1-0.1,0.2-0.1  c0,0,0.1,0,0.1,0c0,0,0,0,0.1,0l0,0l0,0c0,0,0,0,0,0c0.1,0,0.3,0,0.4,0l0.1,0c0,0,0.1,0,0.1,0C56.6,82.4,56.6,82.4,56.7,82.4z   M57.9,78.8c0.3,0,0.5,0.1,0.7,0.2c0.1,0.1,0.2,0.1,0.3,0.2c0.1,0.1,0.2,0.2,0.2,0.3c0.1,0.2,0.2,0.5,0.1,0.7c0,0.2-0.1,0.5-0.3,0.7  c-0.2,0.2-0.3,0.3-0.6,0.4c-0.4,0.2-0.9,0.1-1.4,0.1c-1.8-0.5-3.1-1.8-3.7-2.5c0.2,0,0.5,0,0.7,0c0.6,0,1.2,0,1.8-0.1  c0.3,0,0.6-0.1,0.9-0.1c0.1,0,0.3-0.1,0.4-0.1c0,0,0.1,0,0.1,0c0,0,0,0,0,0c0,0-0.1,0-0.1,0.1c0,0-0.1,0-0.1,0.1l-0.1,0.1  c0,0,0,0,0,0l0,0l0,0c0,0-0.1,0.1-0.1,0.1c-0.1,0.1-0.1,0.2-0.1,0.3c0,0,0,0,0,0c0,0,0,0,0,0.1c0,0,0,0.1,0,0.1c0,0,0,0.1,0,0.1  c0,0.2,0.1,0.4,0.2,0.6c0.1,0.1,0.2,0.2,0.2,0.2c0.1,0.1,0.2,0.1,0.3,0.1c0.1,0,0.1,0,0.2,0c0,0,0.1,0,0.1,0c0.2,0,0.3-0.1,0.4-0.2  c0,0,0,0,0-0.1c0,0,0,0,0-0.1c0,0,0-0.1,0-0.1c0,0,0,0,0,0.1c0,0-0.1,0.1-0.1,0.2c-0.1,0.1-0.2,0.1-0.3,0.1c-0.2,0-0.3,0-0.4-0.1  c-0.1-0.1-0.2-0.3-0.2-0.4c0-0.1,0-0.3,0-0.3c0,0,0-0.1,0-0.1c0,0,0,0,0,0c0-0.1,0.1-0.1,0.1-0.2c0,0,0-0.1,0.1-0.1c0,0,0,0,0,0l0,0  l0,0c0,0,0,0,0,0c0.1-0.1,0.2-0.1,0.3-0.2l0.1,0c0,0,0.1,0,0.1,0C57.7,78.8,57.8,78.8,57.9,78.8z M57.7,75c0.1,0,0.3,0,0.4,0  c0.1,0,0.2,0.1,0.3,0.1c0.2,0.1,0.4,0.3,0.5,0.5c0.1,0.2,0.1,0.5,0.1,0.7c0,0.2-0.1,0.5-0.3,0.7c-0.1,0.2-0.3,0.3-0.6,0.5  c-1.9,0.8-4.1,0.3-4.9,0c0.1-0.1,0.3-0.2,0.4-0.2c0.5-0.3,1-0.6,1.5-1c0.2-0.2,0.5-0.4,0.7-0.6c0.1-0.1,0.2-0.2,0.3-0.3  c0,0,0,0,0,0.1l0,0.1c0,0,0,0,0,0.1l0,0l0,0c0,0.1,0,0.1,0,0.2c0,0.1,0,0.2,0.1,0.3c0,0,0,0,0,0c0,0,0,0,0,0.1c0,0,0,0.1,0,0.1  c0,0,0,0.1,0.1,0.1c0.1,0.1,0.3,0.3,0.5,0.4c0.1,0,0.2,0.1,0.3,0.1c0.1,0,0.2,0,0.3-0.1c0.1,0,0.1-0.1,0.2-0.1c0,0,0,0,0,0  c0.1-0.1,0.2-0.3,0.2-0.4c0,0,0-0.1,0-0.1c0,0,0,0,0-0.1c0,0,0-0.1,0-0.1c0,0,0,0,0,0.1c0,0.1,0,0.1,0,0.2c0,0.1-0.1,0.2-0.2,0.3  c-0.1,0.1-0.3,0.1-0.4,0.1c-0.2,0-0.3-0.1-0.4-0.2c-0.1-0.1-0.2-0.2-0.2-0.3c0,0,0-0.1,0-0.1c0,0,0,0,0,0c0-0.1,0-0.2,0-0.2  c0,0,0-0.1,0-0.1c0,0,0,0,0-0.1l0,0l0,0c0,0,0,0,0,0c0-0.1,0.1-0.2,0.2-0.3l0.1-0.1c0,0,0,0,0.1-0.1c0,0,0.1-0.1,0.2-0.1  C57.2,75.1,57.5,75,57.7,75z M81.3,76.1c-3.7,4.4-7.3,3.6-9.7,2.2c-1.7-1-1.8-3.4-0.3-4.5c0,0,0,0,0,0c0.5-0.4,1.1-0.6,1.7-0.7  c0.6-0.1,1.2,0,1.7,0.2c0,0,0.1,0,0.1,0c0.8,0.4,1.2,1.4,0.9,2.2c-0.1,0.2-0.2,0.4-0.4,0.4c-1.3,0.5-2-0.4-2-0.4s0,0.1-0.1,0.3  c0,0.1,0,0.1,0,0.2c0,0.1,0,0.2,0.1,0.3c0,0,0.1,0.5,0.5,0.8c0.2,0.2,0.4,0.3,0.6,0.4c0.2,0.1,0.3,0.1,0.3,0.1s0.1,0,0.3,0  c0,0,0.1,0,0.2,0c0,0,0.1,0,0.1,0l0,0l0.1,0c0.1,0,0.1,0,0.2,0c0.1,0,0.3-0.1,0.4-0.1c0.3-0.1,0.5-0.2,0.8-0.4l0.2-0.2l0.1-0.2  c0.1-0.1,0.1-0.4,0.1-0.5c0.1-0.6-0.1-1.2-0.4-1.8c-0.6-1.1-1.8-1.9-3.1-1.9c-0.1,0-0.2,0-0.3,0c-2-1.1-7.9-3.8-14.2-1.1  c-0.1-0.2-0.4-2.9,3.2-4.4c2.6-1.1,10.3-2.4,14.4-0.5C80.4,67.9,84.3,72.5,81.3,76.1z"></path></svg>